<?xml version="1.0" encoding="UTF-8"?>
<svg id="Ebene_1" data-name="Ebene 1" xmlns="http://www.w3.org/2000/svg" viewBox="0 0 288 560">
  <defs>
    <style>
      .cls-1 {
        fill: #fff;
      }
    </style>
  </defs>
  <path class="cls-1" d="m20.73,186.91V24.16h240v162.75H20.73Zm78.49-76.28c-.17.71-.34,1.24-.42,1.78-.04.27-.02.66.14.83.51.54,1.94.45,2.35-.16.46-.69,1.05-.88,1.83-.84,1.15.07,2.13-.31,3.15-.91,1.21-.7,2.02-1.73,2.91-2.7.53-.57.88-1.31,1.29-1.99.46-.77.88-1.56,1.37-2.32.1-.15.46-.27.62-.21.86.31,1.76.59,2.54,1.05,1.01.61,1.02,1.34.26,2.24-.72.85-1.41,1.73-2.09,2.63-.45.59-.39,1.18.25,1.61.65.44,1.3.27,1.73-.45.35-.59.53-1.46,1.03-1.74,1.35-.74,1.36-1.87,1.48-3.15.12-1.41-.4-2.53-1.79-2.95-.36-.11-.73-.18-1.1-.23-.64-.08-.92-.42-.92-1.06,0-1.49-.03-2.99-.02-4.48,0-.29.09-.58.15-.98.58.25,1.02.46,1.48.64,1.27.49,2.51,1.14,3.82,1.39,1.48.28,3.05.25,4.17-1.14.16-.19.61-.41.74-.33,1.22.78,2.6.52,3.91.68.29.04.57.09,1.1.17-.85,1.72-1.64,3.25-2.37,4.8-.28.59-.65.9-1.31,1.03-1.07.2-2.13,1.1-2.02,1.8.16,1.04.1,1.95-.77,2.66,1.65,1.15,3.17.71,3.86-.96.22-.54.24-1.45,1.22-1.18.75.21.9.92.61,1.95-.18.62-.3,1.28-.34,1.92-.02.36.17,1.05.28,1.05.61.02,1.56.08,1.79-.26.49-.76,1.06-1.15,1.88-1.35.25-.06.47-.29.7-.45.6-.42,1.2-.86,1.8-1.27.71-.48,1.51-.87,2.14-1.44,1.42-1.28,2.99-2.44,3.63-4.41.09-.28.86-.34,1.32-.5.02.37.15.79.05,1.12-.73,2.24-1.51,4.46-2.28,6.68-.07.2-.18.39-.25.6-.37,1.07-.8,2.13-1.07,3.22-.07.29.25.85.54,1.02.83.48,2.24.11,2.88-.63.99-1.12,2.02-2.2,2.96-3.35,1.46-1.79,3.09-3.43,2.97-6.09-.08-1.74.17-1.75-1.55-1.99-1.41-.2-1.86-.75-1.56-2.17.17-.81.6-1.55.84-2.35.98-3.24,2.02-6.47,2.85-9.75.42-1.64.48-3.37.63-5.06.03-.3-.25-.84-.51-.93-1.04-.36-2.05.27-2.31,1.36-.39,1.69-.77,3.39-1.13,5.08-.38,1.79-.64,3.6-1.13,5.35-.37,1.29-1.04,2.5-1.56,3.75-.27.65-.36,1.46-.81,1.96-1.63,1.83-3.33,3.6-5.1,5.29-1.04.99-2.25,1.82-3.42,2.67-.82.6-1.58.33-2.04-.61-.29-.61-.64-1.2-1.02-1.75-.67-.97-.69-1.63-.1-2.66.4-.7.64-1.48,1.04-2.18.46-.82.94-1.66,1.56-2.36.48-.55.74-1.09.57-1.76-.05-.21-.49-.52-.69-.47-1.02.22-2.06.45-3.03.85-2.31.94-3.75-.04-3.63-2.51.04-.77,0-1.55-.11-2.32-.07-.6-.4-.77-.98-.4-1.03.66-1.71,1.38-1.46,2.8.42,2.32-.53,3.08-2.72,3.61-.31.07-.72-.04-1.01-.2-.6-.32-1.11-.81-1.73-1.09-1.34-.63-2.68-1.32-4.09-1.71-1.3-.36-1.96.4-1.92,1.75.02.8.04,1.64-.17,2.4-.63,2.36-1.3,4.71-2.07,7.03-.92,2.77-4.14,5.19-6.94,5.33-.56.03-1.13.08-.83-.82.59-1.8,1.14-3.61,1.72-5.41.2-.62.5-1.21.66-1.84.26-1.05-.2-1.59-1.27-1.43-.75.11-1.13-.15-1.29-.84-.14-.57-.52-.73-1.06-.64-.34.06-.71.04-1.01.17-.29.13-.72.41-.73.64,0,.43.21.88.4,1.3.08.17.46.26.46.39.03,1.07.13,2.16-.06,3.2-.19,1.05-.75,2.03-1.06,3.07-.42,1.41-1.74,2.22-3.39,1.86.34-.97.7-1.92,1-2.89.3-1,.69-2.01.77-3.04.1-1.33.24-2.58,1.08-3.69.31-.41.62-.92-.04-1.36-.69-.46-1.4-.39-1.81.23-.19.28-.27.64-.46.92-.6.89-1.09,1.93-1.89,2.57-.66.52-1.18,1-1.56,1.74-.28.54-.77,1-1.23,1.43-.44.42-.97.73-1.44,1.12-.68.58-1.26,1.46-2.04,1.71-1.38.44-2.7.89-3.85,1.79-.46.36-1.05.41-1.44-.24-1.12-1.86-2.26-3.71-3.36-5.58-.13-.23-.15-.75,0-.89,1.03-.95,2.12-1.82,2.63-3.19.07-.19.4-.28.6-.42.17-.13.38-.24.5-.41.73-1.03,1.4-2.11,2.16-3.11,1.22-1.62,2.14-3.4,3.12-5.16.88-1.58,1.18-3.08.87-4.81-.12-.69-.4-1.04-1.14-1.05-.76,0-1.43-.28-1.66-1.1-.47-1.61.93-4.46,2.45-5.21.5-.24.89-.72,1.31-1.11.2-.18.33-.48.56-.6,1.25-.62,1.94-1.68,2.52-2.9.28-.58.61-1.21,1.08-1.61,1.22-1.03,1.94-2.39,2.78-3.7,2.14-3.34,3.91-6.86,5.34-10.54,1.27-3.26,2.44-6.56,3.61-9.86.18-.5.23-1.11.15-1.64-.19-1.19-1.21-1.65-2.26-1.07-.29.16-.59.38-.78.65-1.55,2.13-3.08,4.28-4.6,6.43-.14.2-.14.48-.26.69-.42.74-.84,1.48-1.29,2.21-.21.34-.51.63-.71.97-1.15,1.91-1.62,4.21-3.32,5.82-.06.06-.08.17-.12.25-1.59,3.26-3.22,6.51-4.75,9.8-.61,1.31-1,2.73-1.52,4.09-.45,1.18-.91,2.35-1.43,3.49-.16.34-.54.59-.86.82-.71.51-1.47.94-2.15,1.49-.39.32-.64.8-.95,1.21.08.09.15.17.23.26.9-.33,1.8-.67,2.76-1.02.04.26.08.38.07.49-.25,2.32-.26,2.35,1.82,3.2.88.36,1.24.95.95,1.83-.44,1.29-.77,2.67-1.48,3.81-1.57,2.56-3.34,4.99-5.03,7.48-.07.1-.18.17-.27.26-.7.7-1.38,1.42-2.11,2.07-.23.21-.62.36-.92.34-.89-.05-1.78-.36-2.65-.29-2.63.21-4.38,1.57-3.96,4.68.07.54.24.79.84.63.66-.18,1.34-.31,2.02-.39,1.12-.14,2.1-.49,2.85-1.4.12-.14.59-.19.74-.07.38.3.75.68.99,1.1,1.1,1.91,2.15,3.84,3.21,5.77.45.82,1.17,1.25,1.9.89.57-.29,1-.88,1.47-1.35.3-.31.5-.73.84-.97.92-.65,1.89-1.25,2.85-1.84.15-.09.36-.1.54-.11,1.2-.01,2.06-.64,2.76-1.52.6-.75,1.13-1.56,1.71-2.33.4-.53.83-1.04,1.25-1.56.11.09.22.18.33.27.4,1.51-.05,2.87-.68,4.25-.71,1.57-1.29,3.21-1.9,4.83-.21.56.02.88.63.97,1.12.17,1.71-.19,2.31-1.11.44-.68,1.02-1.35,1.69-1.79.92-.6,1.98-.99,3.2-1.56Zm83-12.22q-.89-1.76-2.23-2.54c-.95-.55-1.37-.48-1.86.53-.49,1.02-1.24,1.66-2.23,2.14-1.25.62-2.44,1.38-3.71,1.93-.26.11-.95-.31-1.15-.66-.22-.39-.1-.96-.13-1.46-.02-.28.03-.58-.08-.82-.19-.41-3-.44-3.25-.05-.61.95-1.26,1.89-1.8,2.89-.37.68-.65.95-1.48.52-1.66-.84-3.2-.66-4.12.47-1.48,1.81-3.49,3.22-4.24,5.59-.08.26-.58.59-.81.54-.25-.05-.51-.48-.61-.79-.1-.3-.04-.68,0-1.01.28-1.97,1.02-3.68,2.74-4.86.23-.16.49-.47.51-.73.11-1.24.21-2.48.19-3.72-.02-1.13-.82-1.86-1.86-1.75-1.48.16-2.31.72-1.97,1.96.05.19.01.47-.1.62-.9,1.2-.97,2.58-.98,4,0,.22-.37.51-.64.65-.23.12-.57.02-.82.11-.3.11-.8.37-.78.49.07.35.27.87.54.96.91.31.97.91.85,1.69-.09.58-.17,1.17-.17,1.76,0,1.02.03,2.05.15,3.06.09.74.6,1.23,1.36,1.36.78.14,1.39,0,1.98-.67,1.08-1.23,1.34-3.04,2.89-3.92.11-.06.13-.27.21-.41.7-1.13,1.34-2.3,2.13-3.37.28-.38,1.1-.81,1.31-.67.41.28.63.91.81,1.44.09.26-.03.62-.11.91-.34,1.19-.72,2.37-1.06,3.56-.12.42-.26.86-.22,1.28.04.42.18,1.07.46,1.18.42.18,1.05.1,1.48-.1.38-.17.71-.62.89-1.03.31-.67.45-1.42.71-2.12.77-2.06,1.55-4.12,2.36-6.17.17-.44.51-.81.79-1.23.66.71,1.13,1.44,1.81,1.88.83.54,1.62.19,1.99-.42,1.44-.33,2.67-.62,4-.92-.38,1.42-.7,2.7-1.07,3.97-.24.83-.63,1.62-.82,2.45-.3,1.32-.51,2.67-.7,4.01-.03.21.15.56.34.68.53.33,1.67.01,2.1-.49.33-.38.69-.72,1.04-1.08.08.04.16.08.24.12.05.57.18,1.15.15,1.72-.13,2.34,1.84,3.54,2.82,5.28.11.19.56.17.86.26.41.12.84.21,1.22.39,1.13.55,2.21,1.26,3.38,1.7,1.29.49,2.66.76,4.01,1.11.91.23,2.06-.09,2.5,1.18.05.14.36.2.57.26,2.05.58,3.82,1.67,5.36,3.09.62.58,1.21,1,2.07,1.12.34.05.65.39.94.63.21.18.33.51.55.61,1.57.71,2.52,1.98,3.53,3.32,1.35,1.79,2.53,3.62,3.34,5.72.86,2.24,1,4.56.82,6.86-.16,2.07-.7,4.12-1.08,6.18-.03.17-.15.39-.28.46-.68.34-.74.99-.93,1.62-.25.85-.53,1.72-.97,2.48-.44.75-1.08,1.39-1.66,2.06-.51.58-1.04,1.13-1.58,1.68-.34.35-.9.6-1.05,1.01-.62,1.74-2.31,2.13-3.59,3.03-.67.47-1.51.79-2.02,1.39-.66.77-1.41,1.12-2.34,1.39-.85.24-1.67.65-2.45,1.08-1.77.97-3.42,2.19-5.62,2.02-.35-.03-.75.31-1.07.56-.09.07.05.62.1.62.41.02.86.04,1.23-.09.4-.14.78-.7,1.09-.65,1.81.31,3.05-1.06,4.61-1.5,1.99-.56,3.84-1.69,5.71-2.65.82-.42,1.61-.95,2.3-1.57,1.08-.96,1.84-2.28,3.31-2.79.16-.05.28-.25.39-.4,1.25-1.69,2.48-3.4,3.75-5.08,2.07-2.75,3.23-5.84,3.65-9.23.07-.61.33-1.24.25-1.82-.27-1.79.1-3.61-.66-5.41-.57-1.34-.48-2.95-1.81-3.95-.15-.12-.24-.37-.29-.57-.59-2.23-1.96-4.05-3.67-5.4-3.34-2.64-6.76-5.2-10.64-7.03-1.23-.58-2.51-1.1-3.8-1.51-1.24-.39-2.54-.58-3.8-.9-.28-.07-.52-.31-.79-.47-.24-.14-.48-.41-.71-.4-1.44.05-2.28-1.04-3.33-1.71-.49-.31-.57-.75-.1-1.15.54-.46,1.14-.85,1.66-1.32.52-.46,1.06-.94,1.44-1.51.37-.55-.04-.81-.59-.74-.26.03-.52.2-.76.34-.77.46-1.54.95-2.31,1.41-.51.3-.96.2-1.1-.38-.19-.74-.4-1.52-.33-2.26.28-3.31,1.68-6.29,2.99-9.27.22-.5.73-1.16,1.17-1.21,1.59-.19,1.77-1.18,1.7-2.43-.02-.31.13-.64.06-.92-.11-.43-.34-.83-.52-1.25-.32.29-.69.53-.94.87-.53.7-1,1.44-1.61,2.33Zm-36.25,63.87c-.2-.37-.29-.78-.54-.97-.77-.6-1.62-1.11-2.42-1.68-.29-.21-.6-.45-.78-.75-.5-.81-.9-1.69-1.41-2.5-1.28-2.02-2.43-4.14-2.3-6.56.09-1.6.56-3.24,1.19-4.72.49-1.16,1.49-2.1,2.26-3.15.99-1.34,1.98-2.68,2.95-4.03.5-.69.8-1.57,1.91-1.53.22,0,.49-.25.68-.45.74-.78,1.44-1.6,2.18-2.38.16-.17.43-.21.62-.36.48-.35.95-.73,1.43-1.1l-.24-.35c-1.09.59-2.25,1.09-3.26,1.8-1,.7-1.76,1.74-2.77,2.42-2.24,1.52-3.9,3.62-5.67,5.59-1.75,1.95-2.65,4.42-2.9,7.02-.15,1.52-.24,3.1.47,4.58.28.58.51,1.19.67,1.81.34,1.35,1.95,3.02,3.13,3.14.13,1.36,1.03,2.31,2.01,3.07.71.54,1.72.7,2.78,1.09Zm-94.97-61.04c.69-.15,1.24-.2,1.72-.38,2.81-1.09,5.61-2.21,8.42-3.32.71-.28,1.45-.51,2.12-.87,1.59-.86,3.14-1.8,4.73-2.67.78-.43,1.67-.68,2.4-1.17,1.8-1.21,3.53-2.53,5.3-3.79,1.09-.77,2.25-1.44,3.3-2.26.26-.2.22-.78.31-1.19-.4-.01-.85-.14-1.18,0-.41.17-.69.62-1.07.88-1.23.83-2.48,1.63-3.73,2.45-1.55,1.02-3.04,2.15-4.67,3.02-3.17,1.7-6.41,3.25-9.62,4.85-1.17.58-2.32,1.2-3.54,1.65-1.48.56-3.03.93-4.53,1.45-.27.09-.64.49-.61.72.03.25.45.45.64.63Zm174.26-21.8c2-1.55,3.06-3.65,3.59-6.05-1.08,2.09-3.09,3.62-3.59,6.05Zm-36.78,30.16c-.03-.13-.05-.27-.08-.4-.26-.03-.57-.18-.76-.08-.73.39-1.46.82-2.11,1.32-.22.17-.25.61-.36.92.34-.11.83-.11.98-.34.38-.58.86-.81,1.52-.9.29-.04.54-.34.81-.52Zm9.54-32.53c-.43-.36-.76-.79-.91-.73-.37.15-.67.51-.99.78.29.28.55.73.88.79.23.04.56-.45,1.02-.85Zm-3.01-25.59c-.5-.36-.81-.76-1.09-.74-.29.02-.55.44-.82.69.32.22.62.53.98.63.19.05.48-.28.93-.58Zm12.59,45.06c-.32-.23-.55-.48-.65-.43-.27.12-.6.33-.7.58-.05.14.3.44.48.66.24-.23.49-.45.87-.81Zm-24.27,72.74c0-.08,0-.17,0-.25-.25-.11-.52-.33-.76-.3-.23.03-.43.31-.64.47.21.13.42.35.64.35.25,0,.5-.18.75-.28Zm-22.25-43.81c.02.08.05.16.07.24.52-.11,1.31.45,1.39-.77-.49.18-.97.35-1.46.53Zm5.83-4.09l.17.45c.46-.19.92-.38,1.38-.58-.06-.14-.11-.27-.17-.41-.46.18-.93.36-1.39.53Z"/>
  <path d="m99.22,110.63c-1.21.58-2.28.96-3.2,1.56-.67.44-1.25,1.11-1.69,1.79-.6.93-1.19,1.29-2.31,1.11-.6-.09-.84-.42-.63-.97.61-1.62,1.18-3.26,1.9-4.83.63-1.39,1.08-2.74.68-4.25-.11-.09-.22-.18-.33-.27-.42.52-.85,1.03-1.25,1.56-.58.77-1.11,1.58-1.71,2.33-.7.88-1.56,1.51-2.76,1.52-.18,0-.39.02-.54.11-.96.6-1.93,1.19-2.85,1.84-.34.24-.54.66-.84.97-.47.48-.9,1.07-1.47,1.35-.73.37-1.45-.07-1.9-.89-1.06-1.93-2.12-3.86-3.21-5.77-.24-.42-.61-.8-.99-1.1-.15-.12-.63-.07-.74.07-.74.92-1.73,1.26-2.85,1.4-.68.08-1.36.22-2.02.39-.6.16-.77-.09-.84-.63-.42-3.11,1.33-4.46,3.96-4.68.87-.07,1.76.24,2.65.29.3.02.69-.13.92-.34.73-.66,1.41-1.38,2.11-2.07.09-.09.2-.16.27-.26,1.69-2.48,3.46-4.92,5.03-7.48.7-1.14,1.04-2.52,1.48-3.81.3-.88-.06-1.46-.95-1.83-2.08-.85-2.07-.88-1.82-3.2.01-.12-.03-.24-.07-.49-.96.35-1.86.69-2.76,1.02-.08-.09-.15-.17-.23-.26.31-.41.56-.89.95-1.21.67-.55,1.44-.98,2.15-1.49.32-.23.71-.49.86-.82.53-1.14.98-2.32,1.43-3.49.52-1.36.91-2.78,1.52-4.09,1.53-3.29,3.16-6.54,4.75-9.8.04-.08.06-.19.12-.25,1.69-1.61,2.16-3.91,3.32-5.82.21-.34.5-.63.71-.97.45-.73.88-1.47,1.29-2.21.12-.21.13-.5.26-.69,1.52-2.15,3.05-4.3,4.6-6.43.19-.27.49-.48.78-.65,1.05-.58,2.07-.13,2.26,1.07.08.53.03,1.14-.15,1.64-1.17,3.3-2.34,6.6-3.61,9.86-1.44,3.68-3.2,7.2-5.34,10.54-.84,1.31-1.56,2.67-2.78,3.7-.48.4-.81,1.03-1.08,1.61-.57,1.21-1.27,2.27-2.52,2.9-.23.11-.36.41-.56.6-.43.39-.81.87-1.31,1.11-1.53.75-2.92,3.6-2.45,5.21.24.82.91,1.09,1.66,1.1.74,0,1.02.36,1.14,1.05.31,1.72.02,3.22-.87,4.81-.98,1.76-1.9,3.54-3.12,5.16-.76,1.01-1.43,2.08-2.16,3.11-.12.17-.32.28-.5.41-.2.15-.53.23-.6.42-.52,1.37-1.61,2.24-2.63,3.19-.15.14-.13.66,0,.89,1.09,1.88,2.24,3.72,3.36,5.58.39.65.98.6,1.44.24,1.16-.9,2.48-1.35,3.85-1.79.78-.25,1.35-1.13,2.04-1.71.47-.39,1-.71,1.44-1.12.46-.43.95-.88,1.23-1.43.39-.74.9-1.22,1.56-1.74.81-.64,1.29-1.68,1.89-2.57.19-.28.27-.63.46-.92.41-.62,1.12-.69,1.81-.23.66.44.35.95.04,1.36-.84,1.1-.97,2.36-1.08,3.69-.08,1.03-.47,2.04-.77,3.04-.29.97-.66,1.91-1,2.89,1.65.36,2.97-.45,3.39-1.86.31-1.04.87-2.02,1.06-3.07.19-1.04.08-2.13.06-3.2,0-.13-.38-.22-.46-.39-.19-.41-.41-.86-.4-1.3,0-.22.44-.51.73-.64.3-.14.67-.12,1.01-.17.54-.09.92.07,1.06.64.16.69.54.95,1.29.84,1.07-.16,1.53.38,1.27,1.43-.16.63-.46,1.22-.66,1.84-.58,1.8-1.12,3.61-1.72,5.41-.3.9.27.85.83.82,2.79-.14,6.02-2.56,6.94-5.33.77-2.32,1.44-4.67,2.07-7.03.2-.76.19-1.6.17-2.4-.04-1.35.62-2.11,1.92-1.75,1.41.4,2.75,1.09,4.09,1.71.61.29,1.13.77,1.73,1.09.29.16.71.28,1.01.2,2.19-.53,3.14-1.29,2.72-3.61-.26-1.42.43-2.13,1.46-2.8.58-.37.91-.2.98.4.1.77.14,1.55.11,2.32-.12,2.47,1.32,3.45,3.63,2.51.97-.39,2.01-.62,3.03-.85.2-.04.64.26.69.47.16.67-.09,1.21-.57,1.76-.62.7-1.09,1.54-1.56,2.36-.4.7-.64,1.49-1.04,2.18-.59,1.03-.58,1.69.1,2.66.39.55.73,1.14,1.02,1.75.46.94,1.22,1.21,2.04.61,1.17-.86,2.38-1.68,3.42-2.67,1.77-1.69,3.46-3.47,5.1-5.29.44-.5.53-1.3.81-1.96.52-1.25,1.19-2.46,1.56-3.75.5-1.75.75-3.57,1.13-5.35.36-1.7.73-3.39,1.13-5.08.26-1.1,1.27-1.72,2.31-1.36.26.09.53.62.51.93-.15,1.69-.21,3.43-.63,5.06-.84,3.28-1.87,6.51-2.85,9.75-.24.8-.67,1.54-.84,2.35-.3,1.42.15,1.97,1.56,2.17,1.72.24,1.47.25,1.55,1.99.12,2.66-1.51,4.3-2.97,6.09-.94,1.15-1.97,2.24-2.96,3.35-.65.74-2.06,1.11-2.88.63-.29-.17-.61-.73-.54-1.02.27-1.1.7-2.15,1.07-3.22.07-.2.18-.39.25-.6.77-2.22,1.55-4.45,2.28-6.68.11-.33-.02-.74-.05-1.12-.46.16-1.22.22-1.32.5-.65,1.96-2.21,3.13-3.63,4.41-.63.57-1.43.96-2.14,1.44-.61.41-1.2.85-1.8,1.27-.23.16-.44.38-.7.45-.82.2-1.39.6-1.88,1.35-.22.35-1.17.28-1.79.26-.11,0-.3-.69-.28-1.05.04-.65.16-1.3.34-1.92.29-1.03.14-1.74-.61-1.95-.98-.27-.99.64-1.22,1.18-.69,1.67-2.21,2.11-3.86.96.88-.7.93-1.61.77-2.66-.11-.7.96-1.6,2.02-1.8.66-.12,1.03-.44,1.31-1.03.73-1.56,1.52-3.09,2.37-4.8-.53-.08-.81-.13-1.1-.17-1.31-.16-2.69.1-3.91-.68-.13-.08-.58.14-.74.33-1.12,1.39-2.69,1.42-4.17,1.14-1.32-.24-2.56-.9-3.82-1.39-.46-.18-.9-.39-1.48-.64-.07.4-.15.69-.15.98,0,1.49.03,2.99.02,4.48,0,.64.29.98.92,1.06.37.05.74.12,1.1.23,1.39.42,1.91,1.54,1.79,2.95-.11,1.29-.13,2.41-1.48,3.15-.51.28-.69,1.15-1.03,1.74-.43.72-1.08.9-1.73.45-.63-.44-.7-1.02-.25-1.61.67-.89,1.37-1.77,2.09-2.63.76-.9.75-1.64-.26-2.24-.78-.47-1.68-.75-2.54-1.05-.17-.06-.53.06-.62.21-.49.75-.91,1.55-1.37,2.32-.41.68-.76,1.42-1.29,1.99-.89.97-1.71,1.99-2.91,2.7-1.02.6-2,.98-3.15.91-.78-.05-1.37.15-1.83.84-.41.61-1.84.7-2.35.16-.16-.17-.18-.56-.14-.83.08-.54.25-1.07.42-1.78Zm3.99-60.38c-.1-.05-.2-.11-.3-.16-.23.19-.48.36-.68.58-.78.88-1.55,1.77-2.3,2.67-.21.26-.32.6-.48.89-1.33,2.39-2.66,4.79-4,7.18-.06.11-.18.18-.24.28-.35.54-.75,1.06-1.03,1.64-1.14,2.41-2.22,4.85-3.37,7.26-.82,1.71-1.74,3.36-2.57,5.06-.35.73-.56,1.53-.91,2.49.37-.13.57-.14.68-.25,1.09-1.07,2.24-2.08,3.21-3.24.9-1.09,1.55-2.39,2.4-3.53.63-.84,1.19-1.66,1.65-2.63,1.03-2.14,2.46-4.05,3.29-6.33.68-1.87,1.66-3.63,2.51-5.44.01-.03.02-.06.03-.09.53-1.52,1.07-3.04,1.59-4.56.2-.6.35-1.22.52-1.83Zm41.87,55c-.32-.35-.63-.91-1.1-1.16-.44-.24-1.07-.15-1.3.5-.58,1.6-1.17,3.2-1.71,4.81-.1.31.01.7.02,1.05.35-.13.83-.17,1.04-.42.92-1.13,1.78-2.3,2.62-3.49.2-.29.24-.69.43-1.3Zm-72.31,1.67c.61-.59,1.08-1.05,1.55-1.51-.27-.2-.52-.55-.81-.59-.68-.08-1.62.72-1.5,1.23.06.25.37.44.76.87Z"/>
  <path d="m182.22,98.41c.6-.89,1.07-1.63,1.61-2.33.25-.33.63-.58.94-.87.18.41.42.82.52,1.25.07.28-.07.62-.06.92.06,1.25-.11,2.24-1.7,2.43-.44.05-.95.72-1.17,1.21-1.31,2.99-2.71,5.96-2.99,9.27-.06.74.15,1.52.33,2.26.14.57.6.68,1.1.38.77-.46,1.53-.95,2.31-1.41.24-.14.49-.31.76-.34.54-.06.95.2.59.74-.38.57-.93,1.04-1.44,1.51-.53.47-1.13.86-1.66,1.32-.47.4-.38.84.1,1.15,1.05.67,1.89,1.76,3.33,1.71.23,0,.48.26.71.4.26.16.5.4.79.47,1.26.32,2.56.51,3.8.9,1.3.41,2.57.93,3.8,1.51,3.88,1.83,7.31,4.39,10.64,7.03,1.71,1.35,3.07,3.18,3.67,5.4.05.2.14.45.29.57,1.34,1,1.25,2.61,1.81,3.95.76,1.79.39,3.62.66,5.41.09.58-.17,1.21-.25,1.82-.41,3.39-1.58,6.49-3.65,9.23-1.27,1.68-2.5,3.39-3.75,5.08-.11.15-.23.34-.39.4-1.47.5-2.23,1.83-3.31,2.79-.69.61-1.48,1.15-2.3,1.57-1.87.96-3.71,2.09-5.71,2.65-1.55.44-2.8,1.8-4.61,1.5-.31-.05-.69.51-1.09.65-.38.13-.82.11-1.23.09-.05,0-.18-.55-.1-.62.32-.25.72-.59,1.07-.56,2.2.18,3.85-1.05,5.62-2.02.78-.43,1.6-.84,2.45-1.08.93-.26,1.68-.62,2.34-1.39.51-.6,1.35-.92,2.02-1.39,1.28-.9,2.98-1.29,3.59-3.03.14-.41.7-.66,1.05-1.01.54-.55,1.07-1.1,1.58-1.68.58-.67,1.22-1.31,1.66-2.06.44-.76.72-1.63.97-2.48.19-.63.25-1.28.93-1.62.14-.07.25-.29.28-.46.39-2.06.92-4.1,1.08-6.18.18-2.31.04-4.63-.82-6.86-.81-2.1-1.99-3.93-3.34-5.72-1.01-1.34-1.96-2.61-3.53-3.32-.23-.1-.34-.43-.55-.61-.29-.24-.6-.58-.94-.63-.85-.12-1.44-.55-2.07-1.12-1.54-1.42-3.32-2.5-5.36-3.09-.2-.06-.52-.12-.57-.26-.44-1.27-1.59-.95-2.5-1.18-1.34-.34-2.72-.62-4.01-1.11-1.17-.44-2.25-1.14-3.38-1.7-.38-.19-.81-.27-1.22-.39-.29-.09-.75-.07-.86-.26-.98-1.74-2.96-2.94-2.82-5.28.03-.57-.09-1.15-.15-1.72-.08-.04-.16-.08-.24-.12-.35.36-.71.71-1.04,1.08-.44.5-1.57.82-2.1.49-.19-.12-.37-.47-.34-.68.19-1.34.4-2.69.7-4.01.19-.84.58-1.62.82-2.45.37-1.27.69-2.55,1.07-3.97-1.33.31-2.56.59-4,.92-.37.61-1.16.96-1.99.42-.67-.43-1.15-1.17-1.81-1.88-.27.41-.61.79-.79,1.23-.81,2.04-1.59,4.1-2.36,6.17-.26.7-.41,1.44-.71,2.12-.18.4-.51.85-.89,1.03-.43.2-1.07.27-1.48.1-.28-.12-.42-.76-.46-1.18-.04-.42.1-.86.22-1.28.34-1.19.71-2.37,1.06-3.56.08-.29.2-.65.11-.91-.19-.53-.4-1.16-.81-1.44-.21-.14-1.04.3-1.31.67-.78,1.07-1.43,2.24-2.13,3.37-.08.13-.1.34-.21.41-1.55.87-1.81,2.69-2.89,3.92-.59.67-1.21.82-1.98.67-.75-.14-1.26-.63-1.36-1.36-.13-1.01-.15-2.04-.15-3.06,0-.59.08-1.18.17-1.76.12-.78.05-1.38-.85-1.69-.27-.09-.48-.61-.54-.96-.02-.12.48-.38.78-.49.25-.09.59,0,.82-.11.26-.14.63-.43.64-.65,0-1.42.08-2.8.98-4,.11-.15.15-.43.1-.62-.34-1.24.49-1.8,1.97-1.96,1.04-.11,1.85.62,1.86,1.75.02,1.24-.08,2.48-.19,3.72-.02.26-.28.57-.51.73-1.71,1.18-2.46,2.89-2.74,4.86-.05.33-.1.71,0,1.01.1.31.36.74.61.79.23.05.73-.28.81-.54.75-2.37,2.77-3.78,4.24-5.59.92-1.13,2.46-1.31,4.12-.47.83.42,1.11.16,1.48-.52.54-.99,1.18-1.93,1.8-2.89.25-.39,3.06-.36,3.25.05.11.24.06.54.08.82.03.49-.09,1.07.13,1.46.2.34.89.77,1.15.66,1.27-.56,2.46-1.32,3.71-1.93.99-.49,1.74-1.12,2.23-2.14.49-1.01.91-1.08,1.86-.53q1.34.77,2.23,2.54Zm-3.95,3.56c-.15-.02-.3-.05-.45-.07-.16.68-.33,1.36-.45,2.05-.02.12.17.32.3.39.07.04.31-.08.37-.18.39-.7.62-1.43.23-2.18Z"/>
  <path d="m145.97,162.28c-1.06-.4-2.07-.55-2.78-1.09-.98-.75-1.88-1.7-2.01-3.07-1.18-.12-2.79-1.79-3.13-3.14-.16-.62-.39-1.23-.67-1.81-.71-1.48-.62-3.06-.47-4.58.26-2.6,1.16-5.06,2.9-7.02,1.76-1.97,3.42-4.07,5.67-5.59,1.01-.68,1.77-1.72,2.77-2.42,1.01-.71,2.17-1.21,3.26-1.8l.24.35c-.48.37-.94.74-1.43,1.1-.19.14-.47.19-.62.36-.74.78-1.44,1.59-2.18,2.38-.19.2-.46.46-.68.45-1.11-.05-1.42.83-1.91,1.53-.97,1.35-1.96,2.69-2.95,4.03-.77,1.04-1.77,1.99-2.26,3.15-.63,1.48-1.1,3.12-1.19,4.72-.14,2.43,1.01,4.55,2.3,6.56.51.81.91,1.68,1.41,2.5.18.3.49.54.78.75.8.57,1.64,1.08,2.42,1.68.25.2.34.6.54.97Z"/>
  <path d="m51,101.24c-.2-.18-.62-.39-.64-.63-.02-.22.34-.62.61-.72,1.5-.52,3.04-.89,4.53-1.45,1.22-.46,2.37-1.07,3.54-1.65,3.22-1.6,6.46-3.15,9.62-4.85,1.63-.87,3.12-2.01,4.67-3.02,1.24-.81,2.5-1.62,3.73-2.45.38-.26.67-.7,1.07-.88.33-.14.78,0,1.18,0-.1.41-.06.99-.31,1.19-1.05.82-2.21,1.49-3.3,2.26-1.77,1.25-3.5,2.57-5.3,3.79-.73.49-1.62.74-2.4,1.17-1.59.87-3.14,1.81-4.73,2.67-.67.36-1.41.59-2.12.87-2.8,1.11-5.6,2.23-8.42,3.32-.49.19-1.03.23-1.72.38Z"/>
  <path d="m225.26,79.45c.5-2.44,2.52-3.96,3.59-6.05-.53,2.41-1.6,4.5-3.59,6.05Z"/>
  <path d="m188.48,109.61c-.27.18-.52.49-.81.52-.66.08-1.14.31-1.52.9-.15.23-.64.23-.98.34.11-.31.14-.75.36-.92.66-.5,1.38-.93,2.11-1.32.18-.1.5.05.76.08.03.13.05.27.08.4Z"/>
  <path d="m198.02,77.08c-.46.4-.79.89-1.02.85-.33-.06-.59-.51-.88-.79.32-.27.62-.63.99-.78.14-.06.48.37.91.73Z"/>
  <path d="m195.01,51.48c-.45.29-.74.63-.93.58-.36-.09-.65-.41-.98-.63.27-.25.53-.67.82-.69.28-.02.59.38,1.09.74Z"/>
  <path d="m207.6,96.55c-.38.35-.63.58-.87.81-.17-.23-.53-.53-.48-.66.1-.25.42-.45.7-.58.09-.04.32.21.65.43Z"/>
  <path d="m183.33,169.29c-.25.1-.5.28-.75.28-.22,0-.43-.23-.64-.35.21-.17.41-.45.64-.47.24-.03.5.19.76.3,0,.08,0,.17,0,.25Z"/>
  <path d="m161.08,125.48c.49-.18.97-.35,1.46-.53-.08,1.22-.87.66-1.39.77-.02-.08-.05-.16-.07-.24Z"/>
  <path d="m166.9,121.39c.46-.18.93-.36,1.39-.53.06.14.11.27.17.41-.46.19-.92.38-1.38.58l-.17-.45Z"/>
  <path class="cls-1" d="m103.21,50.26c-.17.61-.32,1.23-.52,1.83-.52,1.52-1.06,3.04-1.59,4.56-.01.03-.01.06-.03.09-.85,1.81-1.83,3.57-2.51,5.44-.82,2.27-2.26,4.19-3.29,6.33-.46.97-1.02,1.79-1.65,2.63-.85,1.14-1.5,2.43-2.4,3.53-.97,1.17-2.12,2.18-3.21,3.24-.11.11-.31.12-.68.25.34-.95.55-1.75.91-2.49.82-1.7,1.75-3.36,2.57-5.06,1.15-2.41,2.23-4.85,3.37-7.26.27-.58.68-1.1,1.03-1.64.07-.1.18-.18.24-.28,1.34-2.39,2.67-4.79,4-7.18.17-.3.27-.64.48-.89.75-.91,1.52-1.79,2.3-2.67.2-.22.45-.39.68-.58.1.05.2.11.3.16Z"/>
  <path class="cls-1" d="m145.08,105.26c-.19.6-.23,1.01-.43,1.3-.84,1.19-1.7,2.37-2.62,3.49-.21.25-.69.29-1.04.42-.01-.35-.13-.74-.02-1.05.54-1.61,1.13-3.21,1.71-4.81.24-.66.86-.74,1.3-.5.47.25.78.8,1.1,1.16Z"/>
  <path class="cls-1" d="m72.77,106.93c-.39-.43-.7-.62-.76-.87-.12-.51.82-1.3,1.5-1.23.29.03.54.38.81.59-.47.46-.94.92-1.55,1.51Z"/>
  <path class="cls-1" d="m178.27,101.97c.39.75.16,1.48-.23,2.18-.06.1-.29.22-.37.18-.14-.07-.32-.28-.3-.39.12-.69.3-1.37.45-2.05.15.02.3.05.45.07Z"/>
</svg>